<?xml version="1.0" encoding="utf-8"?>
<!-- Generator: Adobe Illustrator 26.3.1, SVG Export Plug-In . SVG Version: 6.00 Build 0)  -->
<svg version="1.1" id="Layer_1" xmlns="http://www.w3.org/2000/svg" xmlns:xlink="http://www.w3.org/1999/xlink" x="0px" y="0px"
	 viewBox="0 0 1440 1024" style="enable-background:new 0 0 1440 1024;" xml:space="preserve">
<style type="text/css">
	.st0{fill:#FFFFFF;stroke:#000000;stroke-miterlimit:10;}
	.st1{opacity:0.2;fill:#562433;enable-background:new    ;}
	.st2{opacity:0.25;fill-rule:evenodd;clip-rule:evenodd;fill:#1C9AF9;enable-background:new    ;}
	.st3{opacity:0.25;fill-rule:evenodd;clip-rule:evenodd;fill:#E254AF;enable-background:new    ;}
	.st4{opacity:0.25;fill-rule:evenodd;clip-rule:evenodd;fill:#FF8E31;enable-background:new    ;}
	.st5{opacity:0.1;fill:#2F0D2D;stroke:#000000;stroke-miterlimit:10;enable-background:new    ;}
</style>
<g id="Layer_1_00000112605919457942644500000017355513721775608244_">
	<g id="Layer_2_00000071559915078538702480000006089811482547218097_">
		<rect x="-1644.2" y="-917.1" class="st0" width="4967" height="3139.7"/>
	</g>
	<g id="Layer_1_00000085216323351879797570000018344993200176895418_">
		<g id="Layer_2_00000154411852861472101020000005987755817578456245_">
			<rect x="-1417.7" y="-771.5" class="st1" width="4348.8" height="2764.9"/>
		</g>
		<g id="Layer_1_00000136369523710260047700000015894770856770022016_">
			<path class="st2" d="M-328.9,690.7c114.1-80.7,280.4-32.9,424.3-50.2c144.7-17.4,309.2-130,426.7-51.7
				C650,674,577.7,865.5,634.4,999.6c37.1,87.6,112.6,152.6,161,235.7c72,123.3,211.1,233.5,193.9,372
				c-16.8,136-128.6,296.4-278.8,315.5c-176.6,22.4-289.4-247.8-465.2-220.9c-188.6,28.9-214.8,370.2-405.2,354
				c-159.9-13.7-137.9-258.7-159.3-402.4c-15.1-101,82-197.6,54.8-296.7c-32.9-120.2-207.8-183.3-219.7-306.7
				C-496.7,920.1-443.2,771.5-328.9,690.7L-328.9,690.7z"/>
			<path class="st3" d="M1465.6,314.5c106-57.9,209.3-53.9,411.8-43.6c315.7,16.1,598,35.1,689.6,192.4
				c116.5,199.7-119.8,412.9-215.1,621.3c-174.3,380.8-213.7,475.2-287.8,477.6c-134.4,4.3-175.8-299.6-435.3-362.7
				c-34.6-8.4-131.1-31.8-208.9,14.6c-59.3,35.4-48.9,76.3-110.1,115.8c-71.7,46.2-156.5,35.5-254.4,23.1
				c-98.9-12.5-161.3-20.4-186.4-65.6c-36.6-65.8,32.2-163.7,53.5-193.9c42.3-60.2,73.2-66.2,117.7-117
				c67.6-77.1,76.6-155,94.8-221.7C1182.7,579.6,1316.5,396,1465.6,314.5z"/>
			<path class="st4" d="M-128.7-804.3c114.1-80.7,280.4-32.9,424.3-50.2c144.7-17.4,309.2-130,426.7-51.7
				c127.9,85.2,55.6,276.7,112.3,410.8c37.1,87.6,112.6,152.6,161,235.7c72,123.3,211.1,233.5,193.9,371.9
				c-16.7,136-128.6,296.4-278.7,315.6c-176.6,22.4-289.4-247.9-465.2-220.9c-188.6,29-214.8,370.3-405.1,354
				C-119.4,547.2-97.4,302.2-119,158.6C-134.1,57.5-37-39.1-64.2-138.1c-33-120-207.9-183.1-219.8-306.4
				C-296.7-574.9-242.9-723.5-128.7-804.3L-128.7-804.3z"/>
		</g>
	</g>
</g>
<g id="Layer_2_00000150787439176093892480000000369820691748595609_">
	<rect x="-1759.3" y="-1193.9" class="st5" width="5338" height="3541.2"/>
</g>
</svg>
